# xmcd
#
# Track frame offsets: 
#        150
#        16974
#        36108
#        53715
#        74627
#        96971
#        111078
#        128395
#        145942
#        164760
#        186926
#        209100
#        228531
#
# Disc length: 3238 seconds
#
# Revision: 0
# Processed by: cddbd v1.5.2PL0 Copyright (c) Steve Scherf et al.
# Submitted via: ExactAudioCopy v1.0b4
#
DISCID=c10ca40d
DTITLE=Otis Spann - Candid Spann, Vol. 2 (LP)
DYEAR=1983
DGENRE=Blues
TTITLE0=It Must Have Been The Devil
TTITLE1=Otis' Blues
TTITLE2=Going Down Slow
TTITLE3=Half Ain't Been Told
TTITLE4=Monkey Face Woman
TTITLE5=This Is The Blues
TTITLE6=Strange Woman (Unissued)
TTITLE7=Evil Ways
TTITLE8=Come Day Go Day
TTITLE9=Walking The Blues
TTITLE10=When Things Go Wrong (Unissued)
TTITLE11=Bad Condition
TTITLE12=My Home In The Delta
EXTD=
EXTT0=
EXTT1=
EXTT2=
EXTT3=
EXTT4=
EXTT5=
EXTT6=
EXTT7=
EXTT8=
EXTT9=
EXTT10=
EXTT11=
EXTT12=
PLAYORDER=
